<svg width="22" height="23" viewBox="0 0 22 23" fill="none"
    xmlns="http://www.w3.org/2000/svg">
    <path fill-rule="evenodd" clip-rule="evenodd" d="M10.9161 20.1111C15.8864 20.1575 19.9533 16.1658 19.9996 11.1954C20.046 6.22509 16.0544 2.15823 11.084 2.11185C6.11366 2.06547 2.0468 6.05714 2.00042 11.0275C1.95404 15.9978 5.94571 20.0647 10.9161 20.1111ZM21.9996 11.2141C21.9429 17.289 16.9723 22.1677 10.8974 22.111C4.82252 22.0543 -0.056178 17.0837 0.00050809 11.0088C0.0571942 4.93396 5.0278 0.055255 11.1027 0.111941C17.1775 0.168627 22.0562 5.13923 21.9996 11.2141ZM10.9534 16.1112C10.4011 16.1061 9.9576 15.6542 9.96275 15.102L10.0001 11.1021C10.0052 10.5499 10.4571 10.1064 11.0094 10.1115C11.5616 10.1167 12.0051 10.5685 12 11.1208L11.9627 15.1206C11.9575 15.6729 11.5056 16.1164 10.9534 16.1112ZM12.0373 7.12097C12.0322 7.67323 11.5803 8.11675 11.028 8.11159L11.018 8.1115C10.4658 8.10635 10.0222 7.65447 10.0274 7.10221C10.0325 6.54995 10.4844 6.10643 11.0367 6.11159L11.0467 6.11168C11.5989 6.11683 12.0425 6.56871 12.0373 7.12097Z" fill="#202020"/>
</svg>
